<svg xmlns="http://www.w3.org/2000/svg" width="1080" height="400" viewBox="0 0 1080 400" fill="none">
  <defs>
    
    <linearGradient id="gradL" x1="60" y1="120" x2="960" y2="300" gradientUnits="userSpaceOnUse">
      <stop offset="0" stop-color="#4f7dff"></stop>
      <stop offset="0.5" stop-color="#7b6bf6"></stop>
      <stop offset="1" stop-color="#9d5cff"></stop>
    </linearGradient>
    <radialGradient id="orbL" cx="0.5" cy="0.42" r="0.6">
      <stop offset="0" stop-color="#ffffff"></stop>
      <stop offset="0.35" stop-color="#d8d0ff"></stop>
      <stop offset="0.75" stop-color="#9d7bff"></stop>
      <stop offset="1" stop-color="#7b5cf6"></stop>
    </radialGradient>
    <filter id="glowL" x="-60%" y="-60%" width="220%" height="220%">
      <feGaussianBlur stdDeviation="26"></feGaussianBlur>
    </filter>
    <filter id="softL" x="-80%" y="-80%" width="260%" height="260%">
      <feGaussianBlur stdDeviation="34"></feGaussianBlur>
    </filter>
    <filter id="tglow" x="-30%" y="-40%" width="160%" height="180%">
      <feGaussianBlur stdDeviation="10"></feGaussianBlur>
    </filter>
  </defs>
  <g transform="translate(-10,22) scale(0.4)">
    
    <circle cx="512" cy="148" r="120" fill="#8b7bff" filter="url(#softL)" opacity="0.55"></circle>
    
    <g filter="url(#glowL)" opacity="0.45" fill="#7b6bf6">
      <rect x="125" y="362" width="118" height="300" rx="59" ry="59"></rect>
      <rect x="289" y="277" width="118" height="470" rx="59" ry="59"></rect>
      <rect x="453" y="182" width="118" height="660" rx="59" ry="59"></rect>
      <rect x="617" y="262" width="118" height="500" rx="59" ry="59"></rect>
      <rect x="781" y="332" width="118" height="360" rx="59" ry="59"></rect>
    </g>
    
    <g fill="url(#gradL)">
      <rect x="125" y="362" width="118" height="300" rx="59" ry="59"></rect>
      <rect x="289" y="277" width="118" height="470" rx="59" ry="59"></rect>
      <rect x="453" y="182" width="118" height="660" rx="59" ry="59"></rect>
      <rect x="617" y="262" width="118" height="500" rx="59" ry="59"></rect>
      <rect x="781" y="332" width="118" height="360" rx="59" ry="59"></rect>
    </g>
    
    <rect x="503" y="148" width="18" height="64" rx="9" fill="url(#orbL)" opacity="0.9"></rect>
    
    <circle cx="512" cy="148" r="52" fill="url(#orbL)"></circle>
    <circle cx="512" cy="148" r="52" fill="none" stroke="#ffffff" stroke-opacity="0.5" stroke-width="2"></circle>
  </g>
  <text x="398" y="264" font-family="&#39;Poppins&#39;,system-ui,sans-serif" font-size="208" font-weight="700" fill="url(#gradL)" filter="url(#tglow)" opacity="0.45" letter-spacing="-4">Lumen</text>
  <text x="398" y="262" font-family="&#39;Poppins&#39;,system-ui,sans-serif" font-size="208" font-weight="700" fill="url(#gradL)" letter-spacing="-4">Lumen</text>
</svg>