<svg xmlns="http://www.w3.org/2000/svg" width="1024" height="1024" viewBox="0 0 1024 1024" fill="none">
  <defs>
    <linearGradient id="gradM" x1="125" y1="380" x2="899" y2="644" gradientUnits="userSpaceOnUse">
      <stop offset="0" stop-color="#4f7dff"></stop>
      <stop offset="0.5" stop-color="#7b6bf6"></stop>
      <stop offset="1" stop-color="#9d5cff"></stop>
    </linearGradient>
    <radialGradient id="orbM" cx="0.5" cy="0.42" r="0.6">
      <stop offset="0" stop-color="#ffffff"></stop>
      <stop offset="0.35" stop-color="#d8d0ff"></stop>
      <stop offset="0.75" stop-color="#9d7bff"></stop>
      <stop offset="1" stop-color="#7b5cf6"></stop>
    </radialGradient>
    <filter id="glowM" x="-60%" y="-60%" width="220%" height="220%">
      <feGaussianBlur stdDeviation="26"></feGaussianBlur>
    </filter>
    <filter id="softM" x="-80%" y="-80%" width="260%" height="260%">
      <feGaussianBlur stdDeviation="34"></feGaussianBlur>
    </filter>
  </defs>
  <g transform="scale(1)">
    
    <circle cx="512" cy="148" r="120" fill="#8b7bff" filter="url(#softM)" opacity="0.55"></circle>
    
    <g filter="url(#glowM)" opacity="0.45" fill="#7b6bf6">
      <rect x="125" y="362" width="118" height="300" rx="59" ry="59"></rect>
      <rect x="289" y="277" width="118" height="470" rx="59" ry="59"></rect>
      <rect x="453" y="182" width="118" height="660" rx="59" ry="59"></rect>
      <rect x="617" y="262" width="118" height="500" rx="59" ry="59"></rect>
      <rect x="781" y="332" width="118" height="360" rx="59" ry="59"></rect>
    </g>
    
    <g fill="url(#gradM)">
      <rect x="125" y="362" width="118" height="300" rx="59" ry="59"></rect>
      <rect x="289" y="277" width="118" height="470" rx="59" ry="59"></rect>
      <rect x="453" y="182" width="118" height="660" rx="59" ry="59"></rect>
      <rect x="617" y="262" width="118" height="500" rx="59" ry="59"></rect>
      <rect x="781" y="332" width="118" height="360" rx="59" ry="59"></rect>
    </g>
    
    <rect x="503" y="148" width="18" height="64" rx="9" fill="url(#orbM)" opacity="0.9"></rect>
    
    <circle cx="512" cy="148" r="52" fill="url(#orbM)"></circle>
    <circle cx="512" cy="148" r="52" fill="none" stroke="#ffffff" stroke-opacity="0.5" stroke-width="2"></circle>
  </g>
</svg>